<svg width="249" height="70" viewBox="0 0 249 70" fill="none" xmlns="http://www.w3.org/2000/svg">
<path d="M249 70H0V30H5V65H113.958L183 30H249V70Z" fill="#EF1A24"/>
<path d="M15.5043 26.1582V2.05908H25.5535C27.3578 2.05908 28.8679 2.31404 30.0838 2.82395C31.3076 3.33386 32.2254 4.04773 32.8373 4.96557C33.4571 5.88341 33.7669 6.94638 33.7669 8.15447C33.7669 9.07231 33.5747 9.89209 33.1903 10.6138C32.8059 11.3277 32.2764 11.92 31.6018 12.3906C30.9271 12.8613 30.1466 13.1908 29.2601 13.3791V13.6144C30.2329 13.6615 31.1311 13.9243 31.9548 14.4028C32.7863 14.8814 33.4531 15.5482 33.9552 16.4032C34.4573 17.2505 34.7083 18.2546 34.7083 19.4156C34.7083 20.71 34.3788 21.8671 33.7199 22.887C33.0609 23.8989 32.1078 24.6991 30.8604 25.2875C29.6131 25.868 28.0991 26.1582 26.3183 26.1582H15.5043ZM21.329 21.4631H24.9298C26.1928 21.4631 27.1224 21.2239 27.7186 20.7453C28.3227 20.2668 28.6247 19.6 28.6247 18.7449C28.6247 18.1252 28.4796 17.5917 28.1893 17.1446C27.899 16.6896 27.4872 16.3405 26.9537 16.0973C26.4203 15.8463 25.781 15.7208 25.0357 15.7208H21.329V21.4631ZM21.329 11.967H24.5532C25.1887 11.967 25.7535 11.8611 26.2477 11.6493C26.7419 11.4375 27.1263 11.1316 27.4009 10.7315C27.6833 10.3314 27.8245 9.84894 27.8245 9.28412C27.8245 8.47611 27.5382 7.84068 26.9655 7.37784C26.3928 6.915 25.6201 6.68358 24.6474 6.68358H21.329V11.967Z" fill="black"/>
<path d="M14.1416 58.5067V34.4075H19.9663V44.0801H29.4624V34.4075H35.2754V58.5067H29.4624V48.8223H19.9663V58.5067H14.1416Z" fill="black"/>
<path d="M86.8428 26.1585V2.05933H92.6675V12.2497H92.9852L100.952 2.05933H107.812L99.2689 12.8145L107.965 26.1585H100.999L94.9974 16.6859L92.6675 19.6277V26.1585H86.8428Z" fill="black"/>
<path d="M156.338 2.05933V26.1582H151.396L141.806 12.2496H141.653V26.1582H135.828V2.05933H140.841L150.325 15.9444H150.525V2.05933H156.338Z" fill="black"/>
<path d="M84.765 34.3928V58.492H79.8228L70.2326 44.5832H70.0796V58.492H64.2549V34.3928H69.2677L78.752 48.2781H78.9521V34.3928H84.765Z" fill="black"/>
<path d="M68.6677 2.05933H63.6152V26.1583H83.6523V21.1299H68.6677V2.05933Z" fill="black"/>
<path fill-rule="evenodd" clip-rule="evenodd" d="M55.9268 49.0859H43.5593V58.5068H38.5068V34.4443H60.9793V58.5068H55.9268V49.0859ZM55.9268 44.0575H43.5593V39.471H55.9268V44.0575Z" fill="black"/>
<path fill-rule="evenodd" clip-rule="evenodd" d="M55.2774 16.7009H42.9099V26.1218H37.8574V2.05933H60.3299V26.1218H55.2774V16.7009ZM55.2774 11.6725H42.9099V7.08601H55.2774V11.6725Z" fill="black"/>
<path fill-rule="evenodd" clip-rule="evenodd" d="M127.741 16.6068H115.374V26.1582H110.321V2.05933H132.794V26.1582H127.741V16.6068ZM127.741 11.6108H115.374V7.05372H127.741V11.6108Z" fill="black"/>
<path d="M186.381 60H182.771L190.884 37.4545H194.814L202.927 60H199.316L192.942 41.5497H192.766L186.381 60ZM186.987 51.1712H198.7V54.0334H186.987V51.1712ZM206.183 60V37.4545H214.219C215.973 37.4545 217.426 37.7738 218.579 38.4123C219.731 39.0508 220.593 39.9241 221.166 41.0323C221.738 42.1332 222.024 43.3735 222.024 44.7532C222.024 46.1403 221.734 47.3879 221.155 48.4961C220.582 49.5969 219.716 50.4703 218.557 51.1161C217.404 51.7546 215.955 52.0739 214.208 52.0739H208.682V49.1896H213.9C215.008 49.1896 215.907 48.9988 216.597 48.6172C217.287 48.2282 217.793 47.6998 218.116 47.032C218.439 46.3641 218.601 45.6045 218.601 44.7532C218.601 43.9019 218.439 43.146 218.116 42.4854C217.793 41.8249 217.283 41.3075 216.586 40.9332C215.896 40.5589 214.986 40.3718 213.856 40.3718H209.585V60H206.183ZM226.012 60V37.4545H234.048C235.802 37.4545 237.255 37.7738 238.408 38.4123C239.56 39.0508 240.422 39.9241 240.995 41.0323C241.567 42.1332 241.853 43.3735 241.853 44.7532C241.853 46.1403 241.563 47.3879 240.984 48.4961C240.411 49.5969 239.545 50.4703 238.386 51.1161C237.233 51.7546 235.784 52.0739 234.037 52.0739H228.511V49.1896H233.729C234.837 49.1896 235.736 48.9988 236.426 48.6172C237.116 48.2282 237.622 47.6998 237.945 47.032C238.268 46.3641 238.43 45.6045 238.43 44.7532C238.43 43.9019 238.268 43.146 237.945 42.4854C237.622 41.8249 237.112 41.3075 236.415 40.9332C235.725 40.5589 234.815 40.3718 233.685 40.3718H229.414V60H226.012Z" fill="white"/>
</svg>
